<svg width="1254" height="1254" viewBox="0 0 1254 1254" fill="none" xmlns="http://www.w3.org/2000/svg">
<path d="M831.253 234.725C841.864 237.961 848.777 250.471 853.118 259.881C863.95 283.35 865.707 310.11 856.663 334.447C853.669 342.488 849.836 350.862 848.33 359.299C847.901 364.394 850.289 370.007 851.232 374.949C855.941 399.564 843.903 439.837 819.551 450.826C817.372 467.627 814.016 484.197 813.11 501.184C813.012 503.106 811.402 503.662 809.902 504.651C810.165 512.091 816.912 532.962 819.717 540.646C828.473 564.618 839.525 581.964 863.068 592.964C870.936 590.65 882.943 584.377 891.069 586.006C897.914 587.256 904.643 593.369 910.846 595.6C945.074 607.318 979.241 619.671 1013.14 632.26C1067.68 652.515 1087.67 691.2 1100.56 745.23C1106.96 771.088 1110.82 797.515 1112.12 824.119C1113.16 846.021 1111.63 870.654 1110.59 892.697C1109.36 917.906 1108.35 943.127 1107.55 968.354C1106.26 1004.85 1105.04 1041.39 1101.16 1077.71C1100.65 1082.47 1100.14 1086.97 1099.07 1091.65C1079.74 1112.47 998.926 1100.64 973.019 1092.84C969.033 1100.48 963.939 1110.38 959.267 1117.46C1020.63 1118.44 1084.72 1117.54 1146.27 1117.52L1146.29 1124.52C1104.19 1125.12 1061.38 1124.68 1019.23 1124.68L788.061 1124.66L118.209 1124.64L118.27 1117.53L462.164 1117.54C469.234 1111.14 478.196 1104.24 485.702 1098.21C485.291 1055.93 484.489 1013.67 483.297 971.415C470.589 988.444 414.345 1065.22 399.887 1068.05C382.221 1071.5 360.367 1057.95 346.304 1048.68C321.678 1067.93 291.641 1088.38 258.929 1083.01C232.062 1078.61 229.161 1055.28 223.548 1033.62C218.003 1012.23 212.632 988.823 213.18 966.658C213.993 933.795 222.949 900.443 230.353 868.567C240.77 825.577 250.702 782.47 260.147 739.254C267.354 707.377 274.474 676.738 275.929 644.083C267.611 630.925 258.266 618.452 247.983 606.768C242.08 600.13 235.175 593.98 229.891 586.994C225.782 581.562 227.051 575.966 225.539 570.011C224.921 567.575 220.681 561.334 219.027 559.132C212.807 550.851 214.8 544.544 216.687 534.799C207.321 518.676 205.556 514.478 215.627 497.74C216.608 466.548 172.851 437.581 210.943 419.419C218.972 415.59 227.731 410.733 236.018 407.758C233.423 399.727 230.993 391.645 228.727 383.516C225.75 383.382 219.141 383.231 217.515 380.507C214.73 375.844 214.481 362.408 215.326 357.096C215.972 353.023 221.828 350.054 224.945 348.253C224.533 334.536 221.212 324.986 236.092 319.256C275.034 304.262 316.887 296.128 358.48 293.526C365.72 293.073 375.116 292.639 382.074 295.127C386.877 297.153 390.888 311.097 392.765 316.379C395.243 316.81 401.75 317.523 403.443 319.49C406.902 323.511 411.523 337.367 411.388 342.595C411.306 345.789 405.34 348.979 402.838 350.282C403.309 361.769 404.71 374.317 405.577 385.949C413.217 392.218 412.241 411.649 412.982 421.784C413.176 421.792 413.371 421.801 413.566 421.809L414.536 421.871C418.464 422.082 422.619 423.395 425.224 426.186C437.216 439.031 421.255 462.98 418.721 475.717C417.993 479.381 420.072 497.994 420.175 503.785C419.217 505.381 417.989 507.094 416.926 508.651C419.063 525.88 419.223 544.653 421.307 561.984C422.809 574.478 393.004 580.439 383.126 582.989C381.287 598.216 378.865 618.226 374.661 632.719C372.474 640.256 366.027 648.216 364.39 657.481C361.95 671.3 360.369 684.936 358.776 698.848C355.254 730.571 352.53 762.374 350.606 794.233C368.3 768.847 385.008 745.971 402.097 719.801C415.947 698.597 436.511 666.488 452.943 648.492C461.518 638.928 471.593 630.821 482.772 624.496C515.704 605.797 552.51 608.419 588.74 603.41C600.528 601.78 612.439 599.347 624.043 596.688C631.109 594.954 639.644 589.498 646.894 589.432C655.086 589.357 663.995 594.92 672.182 597.142L673.192 597.41C670.878 593.387 668.122 586.601 666.175 582.181C629.976 568.733 601.877 551.707 580.006 519.122C551.683 520.221 516.857 474.441 523.689 446.536C521.204 443.93 514.544 437.568 513.981 434.564C515.221 432.929 515.275 432.487 517.217 431.901C522.146 433.061 538.758 453.212 544.237 458.486C543.99 458.017 543.75 457.545 543.515 457.07C541.149 452.304 533.84 437.346 535.32 433.007C537.098 431.096 536.068 431.706 538.43 430.953C539.894 431.564 540.184 431.347 540.855 432.901C544.331 441.574 547.272 448.484 550.794 457.324C552.868 462.533 559.252 472.261 559.026 477.696C558.991 478.514 558.316 478.527 557.538 478.832C551.284 477.834 533.714 457.389 528.585 451.682C532.599 478.131 549.374 504.068 575.648 512.607C573.027 508.046 562.843 496.104 567.45 491.89C572.348 491.44 576.313 500.802 579.078 505.458C594.506 532.47 617.558 553.421 645.926 566.319C665.3 575.126 694.654 590.421 715.882 581.055C752.431 564.928 781.797 518.979 793.051 481.634C796.517 470.139 796.412 458.426 800.123 447.224C801.25 443.991 813.698 446.703 816.906 444.752C839.513 432.666 852.016 388.488 841.619 366.218C827.456 335.903 812.222 351.626 812.43 376.398C812.492 383.924 804.281 416.365 799.29 418.324C793.265 417.555 794.722 411.004 794.275 405.992C793.669 399.258 792.194 392.631 789.898 386.274C787.736 380.391 785.348 376.04 781.711 370.975C778.894 367.053 772.722 363.679 772.453 359.443C771.596 358.397 767.291 357.396 765.736 356.874C753.447 352.744 740.932 339.806 734.557 329.212C730.063 321.747 720.407 305.401 725.532 298.262C727.002 298.496 727.314 298.217 727.865 299.211C730.088 303.218 731.79 308.648 733.67 312.887C735.831 317.662 738.354 322.267 741.213 326.663C745.928 333.884 754.2 343.136 761.872 347.158C786.224 359.935 797.49 374.624 800.239 402.593C803.301 390.9 806.895 353.045 813.931 346.585C816.386 344.329 823.133 343.368 826.397 343.573C833.169 344.001 838.221 348.775 842.488 353.553C845.348 341.581 851.067 331.528 853.681 317.795C857.888 295.84 853.669 273.105 841.87 254.118C838.643 248.874 834.381 243.883 830.861 238.82C829.905 237.45 830.689 236.332 831.253 234.725ZM666.543 602.011C646.967 593.683 648.112 594.624 627.869 602.625C625.88 603.411 622.028 604.974 619.94 604.648C615.538 604.002 610.917 606.017 606.626 607.071C563.097 617.76 510.686 608.31 473.681 638.818C447.317 660.548 426.963 696.172 407.732 724.35C388.676 752.271 370.861 779.684 350.121 806.467C349.339 816.239 349.222 829.091 348.899 838.992C348.044 866.209 347.616 893.444 347.614 920.68C350.868 923.417 353.799 926.38 356.612 929.57C377.772 953.548 406.995 1018.28 404.274 1050.07C404.071 1052.44 403.704 1054.26 401.822 1055.89C399.628 1056.24 400.638 1056.38 398.67 1055.55C396.59 1052.85 397.348 1049.89 397.399 1046.72C397.601 1034.05 393.002 1020.17 389.489 1008.09C375.771 1021.34 367.558 1030.75 352.022 1044C366.174 1053.9 379.405 1059.95 396.563 1062.04C402.498 1059.91 406.682 1055.58 410.678 1050.84C435.089 1021.84 461.846 990.813 483.037 959.457C482.89 882.888 478.157 804.997 477.015 728.373C476.941 723.481 474.766 711.896 477.906 708.59C480.211 708.057 479.129 707.947 481.271 708.884C483.885 713.329 479.135 725.104 480.06 732.886C480.372 738.991 483.02 744.71 483.452 750.851C488.213 818.4 488.778 886.899 490.145 954.583C491.367 1000.7 492.204 1046.83 492.654 1092.97C526.684 1065.69 530.45 1069.94 571.871 1066.6C588.203 1065.26 604.525 1063.8 620.834 1062.21C675.782 1056.51 730.602 1049.61 785.25 1041.5L829.63 1035.28C834.522 1034.61 856.002 1032.32 858.072 1029.79C857.869 1026.55 854.955 1024.84 853.822 1021.18C852.61 1017.3 852.702 1013.65 853.602 1009.71C856.731 995.987 861.494 982.602 866.001 969.303C871.787 952.397 877.445 935.455 882.968 918.463C890.365 895.588 930.244 757.935 944.523 753.086C946.715 753.943 945.98 753.227 947.058 755.009C947.297 758.799 941.963 767.83 940.169 771.969C934.438 785.03 929.209 798.305 924.494 811.769C908.238 856.951 896.23 903.462 880.629 948.864C873.587 969.358 866.289 989.729 860.49 1010.62C904.686 992.626 983.22 1047.29 1024.54 1063.12C1030.61 1065.5 1036.76 1067.63 1042.99 1069.53C1053.56 1072.74 1072.51 1076.65 1082.48 1081.58C1083.22 1081.94 1082.93 1082.82 1082.92 1083.92C1079.49 1088.86 1069.24 1083.44 1064.52 1082.38C1038.71 1076.61 1014.93 1067.87 991.456 1055.67L976.393 1086.87C1011.69 1094.97 1054.2 1101.3 1089.42 1090.81C1086.18 1089.24 1084.82 1089.25 1084.15 1085.62C1086.69 1081.67 1090.16 1084.4 1093.23 1086.18C1098.58 1043.52 1099.32 990.293 1100.95 947.235L1104.12 877.58C1104.92 859.657 1105.8 840.762 1105 822.827C1103.97 803.87 1101.66 785.011 1098.09 766.367C1090.38 725.495 1074.49 673.29 1037.11 651.811C1014.9 639.044 994.273 632.192 970.472 623.847C962.818 621.165 932.424 611.048 927.813 607.899L927.733 606.966C929.252 606.347 929.968 606.29 931.009 605.174C926.925 602.332 919.62 605.55 914.11 604.154C902.194 601.138 894.106 588.83 881.462 593.604C877.647 594.915 874.683 596.004 870.728 596.809C872.571 597.361 875.038 598.014 876.802 598.634L881.725 594.133C884.101 594.09 884.927 594.536 885.986 596.458C885.405 601.239 870.856 612.88 866.264 616.475C814.806 656.783 728.545 693.202 670.155 647.206C658.748 638.224 648.229 621.232 646.263 606.707C645.755 603.037 647.886 599.285 652.025 599.691C654.168 602.17 652.202 601.893 653.862 604.657C657.621 604.415 662.752 602.951 666.543 602.011ZM254.862 363.024C295.469 350.634 337.383 343.019 379.753 340.333C387.76 339.898 395.763 338.488 402.955 342.242L403.532 342.539C405.51 339.104 400.444 327.689 398.852 323.954C394.704 323.331 383.731 323.033 382.259 318.956C383.2 317.572 383.621 317.579 385.157 316.777C385.353 314.155 381.338 304.691 379.602 302.703C375.154 297.613 363.026 299.997 356.304 300.287C320.203 302.762 284.55 309.723 250.168 321.009C245.035 322.727 236.73 325.21 232.884 328.811C231.121 330.46 231.46 343.243 231.87 345.682C233.646 346.645 235.649 347.357 236.601 348.856C230.649 356.593 220.521 351.814 221.817 364.435C222.346 369.598 220.203 376.256 226.543 377.751C227.62 375.775 225.77 374.648 227.04 373.917C234.824 369.428 246.123 365.39 254.862 363.024ZM234.032 377.2C236.939 387.547 240.01 397.848 243.244 408.098C246.249 408.379 257.16 409.723 259.483 409.44C266.166 408.625 275.78 405.422 282.539 403.573C292.649 400.905 302.823 398.486 313.051 396.318C339.713 390.807 371.335 386.009 398.594 385.607C397.934 376.911 396.788 354.464 395.367 346.987C393.53 346.09 393.157 346.254 391.122 346.233C339.762 348.506 282.212 359.329 234.032 377.2ZM353.905 515.507C354.837 542.271 325.509 534.023 309.568 532.144C303.177 531.391 292.125 532.816 285.012 532.772C283.318 534.425 282.105 535.269 281.405 537.518L281.799 538.818C284.775 540.085 291.98 535.456 296.016 535.74C303.74 536.638 316.427 535.093 323.752 536.364C331.411 537.693 346.864 540.238 353.482 543.828C365.292 550.235 357.731 562.15 348.908 566.738C330.488 573.475 312.841 563.346 295.713 577.015C296.78 580.035 298.459 585.257 299.71 588.012C321.819 589.8 395.769 576.686 414.552 564.519C413.461 552.685 412.478 540.843 411.602 528.992C411.193 523.551 410.722 513.679 409.815 508.673C408.266 507.857 407.192 508.224 405.424 508.46C387.212 510.398 371.887 512.786 353.905 515.507ZM275.072 412.185C277.729 413.706 280.917 415.948 281.399 419.125C284.361 438.707 263.999 441.679 251.117 442.813C252.157 446.244 253.672 450.782 254.477 454.176C265.413 455.117 288.116 456.451 297.717 458.601C301.054 459.349 324.051 469.438 329.016 471.412C344.304 479.992 332.982 495.962 318.546 497.702C328.713 501.938 338.963 505.968 349.292 509.79C368.056 506.108 394.593 502.613 413.409 501.743C410.172 466.762 405.706 427.43 403.79 392.682C396.64 392.116 391.686 392.141 384.494 392.752C347.803 395.152 310.675 403.231 275.072 412.185ZM686.522 650.396C748.647 680.699 823.335 644.089 871.683 603.276C825.626 588.928 813.777 551.663 802.995 508.948C802.278 506.106 799.125 489.35 798.151 488.398C786.787 523.607 759.105 565.637 725.667 584.433C709.716 593.4 694.476 592.05 677.515 586.578C676.811 586.354 676.119 586.113 675.427 585.856C680.13 596.402 692.951 627.318 690.049 637.997C688.494 639.816 686.896 640.434 684.355 638.469C683.565 637.856 683.681 633.656 683.534 632.725C682.989 625.2 678.789 612.58 675.954 605.459C667.504 608.772 663.579 610.14 654.646 611.434C660.389 629.21 670.014 641.108 686.522 650.396ZM201.27 439.064C204.081 451.967 218.036 469.885 222.493 487.161C228.447 477.331 233.546 469.467 239.805 459.915C239.246 458.587 239.311 458.685 238.534 457.431C237.488 455.315 236.041 451.771 234.485 450.301C232.285 450.713 229.996 451.421 227.968 450.702C227.06 448.752 227.297 449.839 228.009 447.192C228.884 446.156 239.205 439.615 242.669 436.639C251.726 436.293 267.18 436.712 272.962 428.732L272.422 428.118C267.856 428.378 261.626 429.908 258.064 427.688L257.301 426.284C258.751 423.232 269.331 425.532 274.315 422.149C275.067 420.565 274.977 421.391 274.396 419.575C270.006 416.278 244.335 414.028 237.918 413.924C228.136 417.956 216.998 423.043 207.934 428.605C203.561 431.29 202.282 434.201 201.27 439.064ZM341.346 591.082C344.296 593.774 348.783 597.245 349.655 601.134L349.112 602.417C345.23 603.903 337.605 595.387 333.325 592.729C324.452 593.857 303.289 597.907 295.757 592.665C293.099 590.815 291.486 584.632 290.286 581.335C287.214 584.032 286.379 585.238 282.394 585.117L281.042 584.334C280.88 583.059 280.947 581.5 282.069 580.614C286.566 577.064 293.193 570.124 297.978 567.425C311.608 559.738 336.336 566.378 348.757 559.71L348.853 558.987C344.461 557.845 338.336 558.532 336.299 555.643C337.406 553.609 336.66 554.407 338.631 553.167C343.632 553.789 347.758 555.515 352.34 553.267L352.897 552.175C351.288 547.962 329.523 543.125 325.266 542.748C314.315 541.779 299.058 540.337 288.836 544.168C280.862 547.163 263.587 558.165 257.227 556.019C255.964 554.312 256.191 555.224 256.359 553.238C259.823 548.457 268.928 541.763 272.733 536.322C275.222 532.762 280.059 527.951 284.405 526.95C290.998 526.127 302.974 525.257 309.534 525.887C323.745 527.25 332.134 531.273 345.991 525.532C341.092 525.187 331.2 525.073 328.678 519.858L329.033 520.771L329.372 519.555C335.759 519.271 341.856 521.973 346.768 519.752L347.517 518.502C347.13 517.116 346.856 515.794 345.353 515.075C322.208 503.994 298.509 499.016 272.812 500.459C265.452 500.871 245.077 525.317 237.414 524.327L236.46 523.476C236.215 517.672 249.029 510.341 253.224 505.799C257.598 501.062 257.38 493.327 261.69 489.655C270.355 488.555 279.524 488.877 288.169 488.118C296.184 487.414 319.537 496.48 324.837 488.642C318.729 486.892 315.953 488.801 310.164 483.554L310.105 482.578C315.728 480.002 324.232 487.43 329.258 481.498C328.636 479.395 326.185 477.132 324.247 476.56C315.668 474.03 299.914 464.275 291.44 463.659C279.446 462.786 260.721 460.265 249.201 461.183C240.834 466.249 233.863 482.184 228.117 490.424C223.78 497.324 219.287 503.419 216.368 510.943C212.778 520.197 224.167 529.202 223.433 533.96C220.814 550.936 220.496 550.584 231.355 564.861C233.596 569.615 232.019 578.866 235.593 582.853C252.43 601.633 269.811 620.112 282.863 641.922C285.959 647.096 289.044 651.798 282.559 654.737C281.662 660.193 281.984 664.914 280.84 671.637C272.659 717.376 263.107 762.864 252.197 808.028C246.004 833.622 239.987 859.26 234.146 884.94C228.565 908.93 222.512 932.95 220.905 957.632C219.174 984.237 224.709 1010.16 231.373 1035.71C236.078 1053.75 238.806 1073.82 261.712 1076.57C288.842 1079.84 315.022 1063.87 335.719 1047.98C347.291 1039.05 358.331 1029.45 368.779 1019.23C374.59 1013.53 381.129 1006.3 386.859 1001C377.116 973.571 367.008 951.534 347.37 929.405C346.846 954.571 345.718 980.508 336.078 1004.12C334.765 1007.33 333.118 1012.49 329.054 1011.69C328.427 1011.07 327.071 1010.18 327.298 1009.4C330.95 996.783 335.313 986.092 337.13 972.756C340.621 947.144 340.182 921.2 340.37 895.385C340.564 837.627 343.455 779.911 349.033 722.422C351.207 700.679 353.728 678.666 357.148 657.07C358.776 646.79 366.543 637.764 368.897 627.6C372.662 613.07 373.085 598.948 376.283 584.389C364.701 586.94 353.051 589.172 341.346 591.082ZM243.698 443.809C241.442 445.506 241.579 444.845 240.997 447.016C241.753 450.867 243.771 453.312 245.654 456.809C246.845 455.83 247.467 455.771 247.441 454.766C247.353 451.424 245.707 447.46 244.49 444.375L243.698 443.809ZM805.781 451.903C803.178 468.198 802.138 472.841 806.418 489.631L807.06 490.143L807.446 489.138C808.444 476.895 810.128 464.719 812.485 452.665C810.208 452.566 807.924 452.617 805.781 451.903ZM418.251 456.219C420.345 449.859 424.551 439.22 421.546 433.057C420.561 431.029 418.775 429.505 416.618 428.852C415.771 428.594 414.774 428.456 413.91 428.318C414.222 433.061 415.388 457.013 417.082 458.911C417.693 457.701 417.859 457.502 418.251 456.219ZM872.504 1014.07C861.439 1039.78 867.121 1036.72 839.231 1040.84L795.812 1046.97C729.12 1056.22 666.481 1065.02 599.122 1071.33C588.956 1072.29 578.777 1073.13 568.589 1073.84C556.423 1074.66 535.664 1074.81 525.077 1079.61C507.147 1087.73 488.341 1105.66 471.945 1117.57L585.669 1117.55L825.142 1117.55C866.932 1117.54 909.689 1117.11 951.423 1117.6C963.651 1096.34 974.985 1074.59 985.4 1052.39C952.054 1034.83 911.079 1012.55 872.504 1014.07Z" fill="#504637"/>
<path d="M912.144 611.43C914.446 612.062 913.571 611.453 915.028 613.064C914.973 614.864 914.355 615.654 913.075 616.934C867.838 662.287 805.383 700.268 740.46 702.669C738.121 702.24 737.423 702.081 737.148 699.84C739.584 696.833 750.637 697.629 756.068 696.974C770.99 695.088 785.63 691.451 799.694 686.124C845.152 669.335 878.027 644.714 912.144 611.43Z" fill="#504637"/>
<path d="M1053.13 749.608C1055.28 749.369 1055.4 749.571 1056.85 750.765L1056.91 752.124C1054.84 754.818 1051.69 754.378 1048.72 755.351C1001.32 770.885 946.348 817.329 921.078 858.72C918.837 858.157 918.2 858.059 917.532 856.087C918.824 852.224 928.217 840.204 931.236 836.53C959.047 802.652 1009.81 758.951 1053.13 749.608Z" fill="#504637"/>
<path d="M428.659 795.794C431.675 797.086 432.837 801.072 434.092 804.219C448.805 841.184 462.765 878.522 472.242 917.226C473.51 922.4 475.782 927.911 473.7 932.797C473.407 932.693 471.269 931.817 471.19 931.579C468.72 924.28 467.252 915.977 465.148 908.446C458.226 883.813 450.203 859.498 441.103 835.581C437.915 827.126 434.644 818.706 431.288 810.318C429.906 806.864 428.242 802.86 426.937 799.333C426.449 798.017 427.761 796.914 428.659 795.794Z" fill="#504637" fill-opacity="0.988235"/>
<path d="M619.824 615.697C625.004 616.303 623.938 619.849 625.243 623.884C635.707 656.367 661.277 679.836 693.313 690.57C700.299 692.909 709.116 693.693 715.16 696.154C716.115 698.003 715.815 697.397 715.203 700.018C705.369 699.736 692.388 695.37 683.454 691.758C656.489 680.865 634.25 659.587 623.449 632.456C621.599 627.809 617.877 620.375 619.824 615.697Z" fill="#504637" fill-opacity="0.988235"/>
<path d="M370.653 316.82C373.762 316.7 378.18 316.471 379.595 319.864C377.232 323.954 344.325 325.226 338.109 326.044C307.973 330.057 278.253 336.738 249.299 346.007C245.789 347.177 241.752 348.671 238.995 345.092C241.101 341.458 253.972 337.987 258.314 336.711C294.343 326.122 333.074 318.37 370.653 316.82Z" fill="#504637"/>
<path d="M881.462 593.604L881.725 594.133L876.802 598.634C875.038 598.013 872.571 597.361 870.728 596.809C874.683 596.004 877.647 594.914 881.462 593.604Z" fill="#504637" fill-opacity="0.0117647"/>
<path d="M647.261 245.028C674.858 242.869 666.549 295.865 668.508 312.167C669.8 322.914 671.87 332.949 677.362 342.421C679.101 345.425 683.601 352.236 686.847 353.114C689.051 352.066 688.524 352.83 689.431 351.163C687.055 346.648 685.53 341.698 684.342 336.747C683.112 331.476 682.267 326.124 681.801 320.732C681.354 315.45 680.926 290.072 683.822 284.68C684.385 283.625 685.91 283.263 687.153 283.178C687.869 283.693 688.843 284.255 688.941 285.324C690.882 307.343 703.679 331.13 722.115 343.6C726.751 346.739 739.909 349.515 746.008 351.424C746.577 351.766 747.373 352.517 747.912 352.981C748.579 354.726 749.002 355.363 748.726 357.219C744.477 361.655 730.29 358.16 723.542 358.904C718.24 359.074 713.078 360.204 707.965 361.55C704.726 362.402 705.504 364.986 703.25 366.757C700.948 366.755 699.674 365.76 697.629 364.638C690.116 366.271 677.129 375.377 671.606 369.767C669.286 362.731 673.878 359.659 678.899 356.183C655.411 330.912 663.108 302.286 660.652 271.597C659.697 259.688 654.168 263.843 647.188 264.957C645.087 264.185 645.816 264.855 644.806 263.01C645.014 256.814 651.798 256.913 656.262 256.758L656.029 255.73C644.04 241.955 641.708 263.123 636.203 265.761C634.305 265.514 635.064 265.934 633.839 264.475C631.513 255.524 639.669 248.072 647.261 245.028ZM695.835 349.539C701.652 348.052 706.049 346.957 712.012 346.206L713.029 345.872C712.227 343.99 708.62 341.381 706.875 339.752C699.497 332.866 693.992 322.893 689.308 314.024C688.837 313.129 689.124 313.555 688.335 312.743C689.278 327.018 690.104 336.002 695.835 349.539Z" fill="#504637"/>
<path d="M603.658 249.923C605.727 249.788 607.805 249.839 609.865 250.075C616.964 250.95 629.7 257.451 628.549 265.919C627.184 267.829 628.072 267.276 625.824 267.694C621.324 266.362 620.663 262.413 616.658 259.866C602.789 251.036 594.192 261.031 587.174 272.02C594.668 266.636 605.415 260.713 614.913 263.885C617.871 264.873 617.907 268.184 616.083 270.562C613.431 271.772 609.026 269.44 605.167 270.132C596.273 271.727 589.217 276.92 583.942 284.039C582.519 295.292 582.274 305.269 584.766 316.44C590.543 342.345 598.743 356.335 593.086 383.379C599.222 382.456 607.595 381.596 610.539 388.6C613.799 396.36 592.705 398.697 586.956 400.418C583.239 406.827 583.236 405.169 576.853 404.755C575.457 405.425 574.28 405.99 573.323 406.449C564.301 411.823 564.592 413.983 557.455 421.372C556.319 422.548 555.459 422.681 554.082 422.545L553.369 421.357C553.277 418.22 555.211 417.661 555.374 414.569C554.02 414.28 552.982 414.019 551.65 413.64C549.839 408.257 561.032 400.003 564.037 396.038C570.711 387.231 570.575 371.117 568.355 360.663C567.28 355.598 563.84 349.029 564.291 344.06C565.686 342.343 564.843 343.01 567.024 342.135C572.475 343.806 574.416 355.183 575.554 360.318C577.765 370.298 577.483 379.935 574.537 389.721L585.65 385.345C591.36 358.509 584.709 345.891 578.433 320.779C574.011 301.938 573.628 280.38 584.452 263.527C589.043 256.379 595.359 251.733 603.658 249.923Z" fill="#504637"/>
<path d="M681.483 140.449C717.842 137.052 755.406 153.725 781.98 177.968C799.18 193.502 816.949 212.633 840.829 216.806C844.65 217.474 848.624 216.046 850.259 219.601C850.081 222.186 850.54 221.121 849.071 223.005C842.311 226.336 832.343 221.974 826.373 220.528C826.966 222.47 827.732 224.171 827.414 226.117C825.509 226.452 825.693 226.053 823.531 224.889C811.965 214.041 798.427 204.097 787.338 192.702C755.621 160.095 708.437 136.596 662.667 151.371C659.881 152.27 658.228 153.815 655.178 154.302C653.005 153.569 653.917 154.179 652.429 152.287C651.517 144.423 675.715 141.141 681.483 140.449Z" fill="#504637"/>
<path d="M718.546 477.821C737.686 475.471 722.611 530.019 708.994 532.194C707.8 532.386 704.665 530.392 703.569 529.81C716.176 517.824 725.514 501.564 718.846 483.905C700.917 485.565 664.197 498.65 649.876 508.982C652.331 514.119 653.99 516.163 657.707 520.162C676.113 537.573 683.736 532.82 706.116 533.379C694.751 543.609 674.968 540.578 663.995 532.773C644.818 519.128 631.366 508.003 660.266 496.269C680.552 488.036 696.913 480.54 718.546 477.821Z" fill="#504637"/>
<path d="M497.199 244.816C498.989 244.792 498.946 244.926 500.595 245.727C501.195 246.861 501.585 248.055 500.299 249.132C477.391 268.397 464.766 295.91 461.917 325.438C460.016 345.149 460.804 376.364 442.602 388.917C441.276 388.532 440.932 388.206 439.684 387.496C439.43 386.951 438.739 385.963 439.104 385.307C443.1 378.117 448.695 372.04 450.56 363.671C453.44 350.748 453.324 337.247 454.536 324.261C455.284 316.884 456.64 309.581 458.591 302.428C464.303 281.73 477.808 255.719 497.199 244.816Z" fill="#504637"/>
<path d="M972.732 335.766C973.816 335.955 976.301 336.205 976.553 337.218C978.579 345.358 975.867 352.178 980.367 360.405C984.323 367.643 998.522 366.274 1001.22 369.915C999.091 373.445 986.986 373.469 982.29 377.462C975.708 383.058 974.74 391.918 973.375 399.912C972.879 402.789 972.254 402.871 970.252 404.241C969.891 404.05 968.133 402.97 968.121 402.907C966.211 394.366 968.268 389.465 963.847 381.15C959.414 372.824 944.584 376.26 941.902 371.129C943.464 368.436 952.36 367.634 956.108 366.341C971.593 361.001 968.789 343.601 972.732 335.766ZM958.888 370.984C966.382 374.31 967.741 376.766 971.042 384.297C971.128 384.402 971.219 384.507 971.305 384.612C975.248 376.761 976.951 374.491 984.721 370.063C978.671 366.317 976.491 364.573 973.466 357.615C973.026 356.602 973.234 356.934 972.634 356.226C968.935 364.149 966.376 366.473 958.888 370.984Z" fill="#504637"/>
<path d="M597.391 136.791C610.58 134.636 629.896 138.287 640.722 146.206C641.922 147.086 641.591 148.403 641.463 149.557C637.409 153.39 626.351 145.642 620.969 144.702C587.735 138.903 561.066 151.751 537.985 175.234C531.471 182.68 526.033 190.367 522.068 199.453C520.795 202.371 519.045 206.547 515.022 204.86C511.884 197.894 524.174 180.279 528.738 174.828C545.946 154.278 570.375 139.214 597.391 136.791Z" fill="#504637"/>
<path d="M512.452 209.68C514.198 210.16 514.505 210.795 515.306 211.94C514.206 217.27 506.361 217.56 501.918 219.9C467.021 238.285 445.399 278.364 444.097 317.221C444.042 318.843 441.546 319.827 440.347 320.512C435.557 316.358 437.577 308.978 438.353 303.169C441.224 281.772 449.637 261.495 462.757 244.35C474.392 229.054 492.665 212.415 512.452 209.68Z" fill="#504637"/>
<path d="M158.242 611.325C166.503 611.409 162.822 623.197 169.977 629.369C175.578 634.2 185.914 630.294 189.364 633.747C189.035 637.948 177.718 638.627 174.678 644.518C170.177 653.243 176.775 661.24 172.215 666.94C171.601 666.781 169.521 666.273 169.253 665.777C165.941 659.586 166.14 653.684 160.382 648.718C155.469 644.487 145.692 648.889 141.582 645.522C141.084 641.174 152.791 640.244 156.422 634.408C161.549 626.161 156.094 617.411 158.242 611.325ZM167.896 648.063C169.417 642.607 170.291 641.34 174.051 637.072C168.53 635.272 167.345 633.741 163.25 629.786C161.549 635.174 161.297 637.06 157.226 641.095C156.841 640.746 169.056 648.228 167.896 648.063Z" fill="#504637"/>
<path d="M598.483 220.627C606.788 219.526 625.383 224.815 628.506 233.254C627.949 235.435 628.494 234.465 626.467 236.037C624.643 236.028 619.175 230.314 616.548 228.795C601.038 219.83 581.989 228.904 571.408 241.268C557.006 258.096 553.357 277.989 554.788 299.502C556.106 309.987 560.599 320.857 561.324 328.053C560.507 330.022 561.188 329.214 558.83 330.207L557.693 329.642C545.718 303.553 546.472 265.635 564.263 242.298C573.049 230.773 583.966 222.747 598.483 220.627Z" fill="#504637"/>
<path d="M536.318 323.532C537.55 324.235 537.643 324.334 538.763 325.197C540.707 329.404 541.784 335.007 543.362 339.524C549.108 355.967 556.006 372.795 553.412 390.622C551.239 405.558 547.08 417.219 534.847 426.586C533.418 427.009 530.899 426.918 530.628 425.193C530.223 421.883 534.766 418.134 536.672 415.641C543.827 406.383 546.045 394.138 546.396 382.741C546.978 363.85 536.749 347.732 533.967 329.578C533.496 326.503 534.462 325.598 536.318 323.532Z" fill="#504637"/>
<path d="M1037.12 507.934C1040.05 508.093 1039.93 507.979 1041.57 509.467C1042.6 512.444 1041.15 515.97 1041.43 519.709C1042.38 532.394 1055.2 531.08 1059.49 534.914L1058.96 536.016C1053.48 539.851 1049.88 534.74 1043.2 540.74C1036.38 546.86 1039.31 553.371 1035.35 559.304C1034.82 559.149 1033.66 558.829 1033.22 558.597C1030.48 557.132 1031.12 547.785 1030.93 544.603C1030.33 535.048 1013.97 537.785 1013.64 532.641C1017.09 528.528 1023.2 531.14 1027.35 528.709C1035.38 524.009 1034.49 514.957 1037.12 507.934ZM1035.74 541.449C1038.52 537.682 1039.69 536.506 1043.65 533.796C1038.42 530.072 1039.23 528.28 1036.97 526.309L1036.49 526.949C1034.36 529.726 1033.78 530.274 1031.02 532.592C1030.23 535.418 1034.02 538.319 1035.74 541.449Z" fill="#504637"/>
<path d="M281.079 168.732C284.012 169.198 282.891 168.551 284.828 170.227C285.796 174.255 283.031 179.922 283.594 183.665C285.445 195.02 302.633 190.947 310.629 191.72C338.784 194.444 337.133 224.2 322.818 241.631C314.156 238.703 323.017 233.593 324.818 226.22C336.933 176.61 283.325 215.036 277.575 183.737C276.708 179.019 278.763 172.711 281.079 168.732Z" fill="#504637"/>
<path d="M468.395 353.634C474.378 355.772 472.13 357.303 471.303 362.312C467.635 384.612 479.49 405.522 497.648 417.919C500.255 419.7 508.952 424.651 509.668 426.985C509.243 429.275 508.819 429.544 507.337 431.292C499.363 427.634 491.965 422.832 485.378 417.037C471.197 404.524 461.673 385.534 463.692 366.375C464.233 361.235 464.848 357.59 468.395 353.634Z" fill="#504637"/>
<path d="M719.715 395.656C726.738 395.25 745.573 398.515 743.834 408.07C738.856 412.401 728.336 402.149 715.123 406.964L714.339 407.258C708.069 410.801 705.577 419.506 699.485 419.305C695.039 416.104 698.438 410.187 700.917 406.435C705.191 399.97 712.233 396.949 719.715 395.656Z" fill="#504637"/>
<path d="M602.455 433.058C608.201 432.852 627.165 435.947 622.334 444.507C615.734 448.059 608.058 436.787 594.754 446.539L594.1 447.027C590.087 451.346 588.444 459.499 583.202 459.309C576.405 453.37 586.4 439.736 592.36 436.593C596.302 434.515 598.249 433.965 602.455 433.058Z" fill="#504637"/>
<path d="M233.272 208.488C242.618 209.729 233.805 218.837 237.184 226.23C241.694 236.1 251.441 232.344 259.686 236.59C268.961 241.367 270.554 255.302 266.073 263.636C264.219 263.48 264.207 263.485 262.456 262.867C260.975 259.917 262.677 249.738 260.354 245.029C256.999 239.104 246.494 240.427 240.393 237.884C228.572 232.958 228.32 218.89 233.272 208.488Z" fill="#504637"/>
<path d="M678.152 213.302C685.255 213.79 691.868 216.91 697.862 220.598C702.35 223.363 706.551 226.581 710.39 230.202C717.333 236.74 730.822 252.8 733.89 263.024C734.38 264.658 733.119 265.504 732.01 266.699C729.096 264.039 725.673 256.639 723.303 253.046C714.033 239.001 701.75 225.819 685.604 219.911C682.677 218.838 677.619 218.388 675.997 215.96C676.75 213.91 676.18 214.851 678.152 213.302Z" fill="#504637" fill-opacity="0.988235"/>
<path d="M826.44 362.779C827.934 363.334 828.026 363.527 829.312 364.521L829.416 365.829C821.854 373.525 819.509 380.094 817.255 390.33C831.51 404.756 823.489 406.377 816.741 419.865C816.355 420.643 816.276 421.989 815.369 423.678C812.626 422.704 813.226 423.327 811.512 421.351C809.877 413.187 829.581 404.058 811.708 393.433C812.302 382.188 817.182 369.591 826.44 362.779Z" fill="#504637"/>
<path d="M603.745 169.131C609.669 168.814 614.276 168.831 620.148 169.993C625.733 171.099 644.64 178.074 642.626 185.374C639.283 186.19 631.751 178.775 626.731 176.966C622.175 175.325 621.067 174.992 616.113 173.987C597.726 172.529 592.918 177.317 577.904 185.025C577.401 185.283 576.741 184.274 576.345 183.843C576.755 176.428 597.285 170.344 603.745 169.131Z" fill="#504637"/>
<path d="M767.493 328.409C770.04 329.393 777.682 336.186 781.968 338.171C787.577 340.765 789.114 340.679 795.176 342.098C796.4 342.384 796.468 343.747 796.664 344.76C795.996 346.743 796.045 346.599 794.447 347.973C785.875 347.653 767.622 341.091 764.805 332.479C765.442 329.846 765.295 330.628 767.493 328.409Z" fill="#504637"/>
<path d="M832.171 367.285C835.294 370.965 838.361 378.495 836.065 383.065L833.965 382.641C830.536 379.315 830.248 371.58 832.171 367.285Z" fill="#504637" fill-opacity="0.988235"/>
<path d="M654.927 467.679C658.479 468.633 661.534 469.112 663.922 471.854C664.485 474.257 664.43 473.339 663.169 476.035C659.581 475.001 655.735 474.459 653.69 471.406C653.592 469.163 653.574 469.919 654.927 467.679Z" fill="#504637"/>
</svg>
