<svg width="1254" height="1254" viewBox="0 0 1254 1254" fill="none" xmlns="http://www.w3.org/2000/svg">
<path d="M783.18 280.814C790.54 281.023 792.322 289.218 794.735 295.101C803.601 316.698 802.254 343.505 795.102 365.318C795.567 368.077 799.204 373.942 800.533 376.804C813.465 404.65 807.134 450.513 777.872 465.315C776.782 481.764 773.488 498.516 773.843 515.321C773.922 518.977 769.544 517.788 771.957 526.252C781.209 558.783 788.489 577.461 818.737 594.139C830.291 589.456 834.345 591.255 845.893 594.397C877.494 582.323 868.713 602.248 892.079 608.29C899.182 610.127 903.492 612.709 910.123 615.672C916.828 618.734 923.686 621.453 930.666 623.834C976.405 639.46 1029.93 647.978 1061.32 688.108C1075.15 705.791 1085.89 727.565 1092.52 749.094C1095.06 755.4 1095.74 765.944 1098.21 771.816C1116.24 814.775 1116.65 859.921 1122.73 905.599C1129.44 955.955 1135.57 1007.28 1133.46 1058.4C1132.57 1079.95 1132.27 1101.33 1129.8 1123.02C1140.64 1122.95 1151.48 1123.03 1162.31 1123.28L1162.19 1130.2L112.882 1130.35L113.069 1123.07L251.424 1122.99C248.892 1112.95 247.386 1097.71 248.449 1087.59C236.34 1081.37 214.692 1064.64 219.462 1047.82C220.978 1042.47 226.101 1034.28 228.841 1028.94C232.582 1021.59 236.06 1014.12 239.268 1006.52C256.735 966.939 272.9 926.797 287.739 886.158C297.082 859.774 306.177 833.537 313.003 806.356C320.281 777.376 337.728 743.962 358.738 722.219C354.464 700.44 349.409 677.98 343.066 656.703C340.911 649.478 335.962 643.851 335.057 636.087C333.879 625.996 339.783 620.577 341.633 611.569C345.033 595.015 345.721 537.621 353.846 527.96C355.925 525.489 359.236 523.454 362.098 522.03C369.268 518.462 408.597 502.869 414.832 502.337C421.739 501.749 432.968 507.515 439.917 509.378C444.502 510.608 449.408 511.124 453.882 512.667C455.931 513.373 457.968 514.327 459.613 515.764C461.403 517.326 462.684 519.495 462.74 521.916C462.836 526.081 459.957 530.034 457.284 532.963L456.703 533.59C458.941 533.613 463.207 533.782 465.248 533.336C469.847 532.332 467.105 531.721 469.189 528.806C473.881 526.359 500.124 526.277 502.832 528.919C502.933 530.962 502.733 531.343 503.985 532.937C506.244 534.287 508.682 533.898 511.436 533.872C513.085 529.317 523.905 509.749 527.882 508.897C538.449 506.635 570.322 506.742 581.159 508.948C585.574 509.847 595.458 529.02 597.414 533.608C609.468 533.699 622.597 533.245 634.586 533.85C640.973 534.172 645.136 537.779 648.853 542.566C652.845 540.484 662.073 534.607 666.206 537.458C665.391 542.316 654.97 545.729 650.678 547.474C650.923 550.553 650.224 554.952 651.302 557.176C656.127 557.241 659.011 557.728 662.758 561.324C664.987 563.429 666.579 566.122 667.351 569.092C669.139 576.171 667.032 583.794 668.618 590.819C675.072 619.475 684.63 646.955 685.334 676.676C745.279 690.202 801.237 655.619 836.408 609.3C817.831 602.657 796.645 592.696 785.072 576.091C769.985 554.452 762.276 521.692 756.704 496.255C750.508 526.202 737.386 552.172 717.309 575.123C711.804 581.413 684.299 610.05 676.058 602.643C675.427 600.677 674.637 600.541 676.394 599.5C693.582 589.316 705.644 578.234 718.049 562.47C735.665 540.084 746.179 514.623 750.722 486.563C751.941 479.047 752.455 471.28 754.084 463.927C756.417 454.958 767.983 463.003 776.886 457.722C786.603 451.963 791.893 442.536 795.426 432.119C802.186 411.959 800.46 394.396 791.667 375.251C786.266 363.482 769.973 352.692 766.238 371.158C762.687 388.714 762.699 408.081 756.692 425.523C755.608 428.672 755.216 430.821 752.081 432.513C746.95 432.525 747.41 430.218 746.718 426.256C743.381 407.237 738.531 393.729 723.009 381.946C707.297 382.344 698.052 380.297 684.22 372.159C668.422 362.811 657.676 346.884 648.81 331.224C645.779 325.866 638.713 316.675 642.497 310.65C644.138 310.644 644.965 310.667 645.908 312.357C660.928 339.288 679.48 373.143 714.376 374.566C718.803 374.746 724.926 372.805 728.495 375.02C730.424 379.189 734.19 381.683 737.478 385.306C745.958 394.64 748.799 404.869 751.91 416.632C754.065 404.255 757.513 368.46 762.778 360.232C764.781 357.1 767.671 354.803 771.387 354.172C777.964 353.057 784.472 356.434 789.622 360.144C790.05 355.567 791.355 349.101 792.028 344.326C794.471 328.579 793.553 313.441 788.311 298.353C785.795 291.118 779.127 287.852 783.18 280.814ZM850.075 600.627C848.513 605.353 843.639 612.22 840.688 616.297C823.568 639.485 801.164 658.258 775.337 671.055C750.287 683.657 713.329 692.37 685.824 684.202C685.787 685.279 685.665 689.155 685.983 690.006C690.471 701.989 697.237 712.894 701.272 725.134C705.51 737.968 707.291 751.237 709.802 764.456C713.408 784.454 723.554 801.488 733.602 818.835C745.977 840.205 760.078 860.76 773.463 881.523C804.299 928.872 832.789 974.403 869.521 1017.55C871.438 1010.24 876.802 997.236 879.502 989.472C884.615 974.36 889.366 959.12 893.744 943.782C899.61 922.768 904.937 901.6 909.713 880.31C918.187 842.917 925.002 808.218 946.384 775.423C948.05 772.863 949.482 770.641 952.801 771.994C954.393 775.331 951.601 780.67 949.837 783.658C926.3 823.66 921.512 866.803 910.656 911.495C900.92 949.127 890.132 988.125 875.02 1023.98C876.937 1026.2 879.184 1028.94 881.204 1030.99C923.221 1025.59 971.519 1058.77 1006.71 1079.92C1023.68 1090.23 1040.97 1099.96 1058.59 1109.1C1062.96 1111.35 1083.26 1122.08 1086.77 1122.62C1094.21 1123.77 1113.49 1123 1122.02 1123.03C1126.59 1076.09 1127.09 1028.86 1123.52 981.831C1121.24 953.554 1117.05 925.731 1113.75 897.571C1110.09 866.393 1108.19 834.62 1100.73 804.054C1098.99 796.853 1096.72 789.787 1093.96 782.911C1092.97 780.499 1089.41 772.667 1088.89 770.677C1087.69 765.993 1088.4 761.634 1086.53 755.804C1074.78 718.668 1055.45 681.544 1019.25 663.212C991.107 648.957 960.896 641.212 930.887 631.8C914.391 626.626 899.879 617.901 883.213 613.37C874.371 610.964 871.928 597.617 858.929 597.683C855.781 598.609 853.112 599.33 850.075 600.627ZM725.581 1005.76C746.626 1047.67 764.983 1082.95 789.279 1123.08L978.034 1123.03C985.345 1109.48 991.174 1097.38 997.689 1083.44C969.45 1066.37 938.834 1046.23 906.168 1039.2C899.824 1037.83 893.089 1037.59 886.592 1037.3C891.534 1042.63 916.718 1066.56 911.648 1071.77C910.619 1071.98 908.44 1072.44 907.699 1071.74C902.317 1066.62 894.553 1057.61 889.709 1052.28C869.717 1030.48 850.803 1007.72 833.034 984.084C811.793 955.722 793.1 925.468 773.616 895.894C752.173 863.337 730.669 831.418 712.778 796.719C700.703 773.292 702.16 751.488 694.17 727.883C684.654 699.785 665.697 672.586 651.994 646.202C648.59 639.858 642.111 633.668 638.652 627.178C634.678 620.577 631.121 611.868 627.251 605.245C627.116 605.018 626.045 604.722 625.849 604.658L625.163 605.068C616.597 610.331 619.279 615.574 617.772 624.079C615.133 639.007 621.789 649.735 628.316 662.361C630.821 667.277 636.276 681.042 637.225 687.3C637.256 687.496 635.468 692.339 635.192 693.172C637.642 694.672 639.166 693.411 641.793 695.505C642.681 697.721 642.509 696.57 642.056 699.117C641.052 700.17 640.654 700.973 638.983 700.856C630.931 700.293 622.175 698.664 614.215 697.776C593.788 695.505 574.103 692.896 553.897 688.916C551.408 688.426 535.718 685.849 533.941 685.004C526.572 681.483 511.295 670.633 503.999 665.887C502.812 665.116 493.288 648.076 492.106 645.277C491.358 643.502 488.991 637.293 487.676 635.462C485.647 635.603 485.751 635.517 483.981 636.478C482.481 643.551 483.543 652.355 482.539 659.568C481.634 666.065 483.202 672.39 482.471 678.55C489.822 686.963 509.944 706.906 518.978 713.917C525.117 718.68 569.409 726.861 572.995 734.349C572.643 736.615 573.163 735.727 571.476 737.154C565.703 738.403 554.258 732.886 548.089 731C537.071 727.62 524.626 724.846 514.347 719.593C509.391 716.647 496.201 703.036 491.407 698.285C489.686 707.904 491.237 714.113 494.702 723.371C496.8 728.979 499.132 737.87 502.598 743.197C514.838 754.574 533.588 760.605 548.083 769.11C552.326 771.639 560.389 772.992 561.228 778.729C559.927 781.846 556.677 781.76 554.137 780.401C536.393 770.898 518.325 762.613 501.101 752.186C503.751 759.686 511.934 777.241 517.616 783.168C541.68 808.261 575.647 820.88 607.113 833.855C626.522 841.858 641.56 847.013 653.029 865.683C664.246 883.954 674.092 902.641 683.754 921.788C697.464 949.489 712.386 977.918 725.581 1005.76ZM259.359 1123.05L388 1123.05C390.528 1112.97 391.771 1096.83 392.91 1086.12L399.112 1026.01C404.607 968.88 411.709 911.905 420.41 855.169C423.716 834.247 428.238 809.418 434.32 789.046C435.866 783.866 441.501 776.996 444.317 772.098C447.694 766.226 449.524 759.754 451.022 753.153C460.653 737.564 464.326 726.383 462.731 708.118C448.556 706.171 447.586 695.431 449.732 683.54L449.917 682.548C446.048 685.469 443.976 686.706 439.726 689.1C439.498 692.008 439.432 693.631 438.729 696.478C442.065 702.136 455.365 724.056 447.729 728.22C445.105 727.871 446.194 728.373 444.237 726.904C441.659 721.54 437.352 706.263 434.358 703.636C432.464 703.263 432.199 703.324 430.328 703.367C428.569 701.854 429.141 702.773 428.552 700.526C429.415 697.103 431.81 694.458 432.309 691.935C432.496 690.992 429.067 685.291 433.464 684.287C436.551 683.583 449.309 674.35 450.305 674.252C453.764 675.55 456.188 677.448 458.472 680.35C458.875 684.722 452.997 695.119 457.925 699.374C464.91 705.406 467.832 693.931 469.843 689.81C472.931 683.491 476.511 677.999 475.155 670.608C473.008 664.246 458.92 650.415 452.934 646.294C450.884 644.879 450.3 645.296 448.65 645.669C437.666 648.161 411.074 661.95 401.274 660.548L399.854 659.599C399.611 657.389 399.529 658.515 400.692 656.164C404.784 652.992 415.019 650.341 420.383 648.345C429.53 644.934 438.529 640.691 447.596 637.287C462.853 641.052 465.539 647.022 475.789 658.552C475.604 637.397 481.17 631.078 461.763 617.632C458.285 615.219 455.068 610.606 451.308 608.075C439.744 600.291 397.315 630.839 388.116 626.908C386.901 624.851 387.218 625.971 387.451 623.351C390.894 618.434 399.043 617.215 403.308 614.154C407.667 611.028 417.271 602.047 420.173 597.267C420.616 596.538 420.439 594.03 420.402 593.083C421.725 591.155 420.86 591.903 423.287 591.02C427.642 592.145 431.357 595.23 435.09 596.225C439.931 597.516 445.638 598.114 450.628 599.155C459.056 600.915 473.652 623.675 482.017 621.257C484.55 617.534 479.703 609.055 478.298 605.267C475.699 598.259 473.366 582.15 466.294 578.772C459.628 575.588 420.532 558.854 415.475 561.264C402.683 567.358 388.116 585.887 376.791 595.362C373.024 598.523 368.247 605.74 363.037 604.514C361.68 603.002 361.873 602.938 361.599 600.864C362.324 597.962 382.701 579.41 386.632 575.914C386.783 572.548 388.165 557.699 386.088 555.242C385.945 555.071 384.139 553.981 383.96 553.871C383.23 551.646 383.287 552.798 384.2 550.298C386.189 548.008 390.937 548.769 395.462 546.559C404.014 542.383 409.885 538.32 417.399 532.575C427.124 533.773 452.442 537.654 454.778 522.75C454.953 521.635 454.675 521.02 454.185 520.07C449.181 518.62 442.164 517.025 436.954 515.821C430.268 514.275 418.579 509.017 412.484 509.444C403.114 513.139 393.815 517.175 384.291 520.994C376.407 524.155 361.527 527.552 358.067 535.824C355.674 541.546 356.016 550.924 354.994 557.243C352.917 575.449 351.76 594.662 349.208 612.733C348.003 621.257 338.293 630.227 344.009 640.44C350.82 652.613 353.055 664.21 356.354 677.778C362.602 703.477 369.731 729.781 371.773 756.215C371.927 759.962 371.266 765.044 369.475 768.344C364.463 777.59 365.23 787.626 362.329 797.478C342.615 864.421 311.275 927.366 285.564 992.081C276.086 1015.94 263.427 1043.69 258.492 1068.69C254.952 1086.66 255.248 1105.19 259.359 1123.05ZM396.016 1123.01L780.07 1122.99C761.67 1092.57 744.526 1061.41 728.667 1029.59C710.285 993.121 692.473 956.187 673.97 919.859C665.55 903.333 649.03 870.967 637.452 857.692C637.311 868.224 635.229 882.502 633.374 893.273C623.204 952.336 598.086 1050.15 522.328 1048.05C460.105 1046.32 442.525 978.72 441.967 927.556C441.742 906.921 443.54 886.36 446.562 865.542C448.58 851.802 450.748 838.08 453.067 824.389C454.94 813.618 468.668 745.016 466.324 738.807L466.049 739.633C463.931 745.861 460.722 751.157 458.234 757.133C455.771 763.048 454.01 770.138 451.083 775.851C447.574 782.691 442.179 786.744 440.32 794.606C432.456 827.885 426.797 862.927 422.178 896.806C416.312 940.249 411.239 983.79 406.959 1027.42L400.864 1087.84C399.974 1096.42 398.362 1115.34 396.016 1123.01ZM589.528 533.431C585.812 527.66 582.002 519.856 578.635 514.956C563.203 514.905 546.02 514.523 530.679 514.97C527.552 520.453 523.113 528.824 519.782 533.7C539.652 533.519 559.523 533.463 579.393 533.532L589.528 533.431ZM766.869 503.163C767.469 490.059 768.54 480.606 770.438 467.588C766.079 467.406 764.946 467.425 760.684 466.059C760.531 469.027 759.49 478.817 760.041 480.676C762.301 488.313 763.985 495.779 765.76 503.547L766.501 504.09L766.869 503.163ZM1004.1 1087.24C998.779 1098.98 993.201 1111.79 987.017 1123.02L1053.32 1123.03C1058.84 1123 1064.36 1122.87 1069.87 1123.33C1054.24 1115.58 1038.85 1107.38 1023.71 1098.74C1017.97 1095.5 1009.37 1090.82 1004.1 1087.24ZM248.965 1079.59C251.615 1061.8 254.703 1052 260.038 1035.21L259.61 1034.66L257.835 1034.85C248.673 1037.4 233.417 1042.45 227.113 1049.81C223.095 1054.51 234.15 1067.61 237.695 1070.91C241.76 1074.37 244.58 1076.55 248.965 1079.59ZM667.602 621.955C667.455 630.968 667.534 648.057 665.912 656.164C668.226 660.242 674.815 672.409 677.441 675.562C678.476 668.606 671.092 625.855 667.602 621.955ZM650.916 631.978C653.99 636.08 656.611 639.718 659.452 643.979C660.879 639.111 659.874 620.381 660.003 612.923C660.217 600.193 662.189 580.549 658.833 567.954C658.111 565.239 653.415 564.052 650.629 563.931C650.249 573.75 651.547 582.717 651.498 592.302C651.425 605.46 651.29 618.826 650.916 631.978ZM539.135 1029.28C546.853 1023.09 554.54 1015.01 559.942 1006.68C589.854 958.643 595.148 893.72 599.924 838.974C557.824 819.992 512.193 806.02 495.324 758.878C492.528 751.065 493.181 728.379 486.74 723.536C487.691 729.586 489.213 738.25 489.281 744.256C489.494 763.281 485.491 782.801 483.043 801.684C475.442 860.319 461.971 922.259 481.901 979.963C487.054 994.885 496.106 1010.92 509.048 1020.26C519.611 1027.89 527.001 1028.24 539.135 1029.28ZM515.887 1036.58C519.598 1036.14 523.444 1035.75 527.134 1035.25C496.934 1028.15 481.994 1007.27 473.008 978.267C449.146 901.257 477.487 821.18 481.924 743.662C482.226 738.397 475.784 706.269 472.452 701.597C472.032 702.215 470.114 704.952 469.915 705.442C479.175 736.137 472.387 758.119 467.339 789.53C456.78 855.237 436.937 928.56 461.649 993.299C467.439 1008.47 478.406 1024.62 492.748 1032.66C500.672 1037.1 507.201 1036.6 515.887 1036.58ZM394.258 554.31C394.359 556.703 394.323 567.226 394.624 568.367C399.11 563.851 402.789 560.515 407.825 556.564C407.874 553.453 407.903 550.56 408.159 547.449C403.371 550.25 399.486 552.355 394.258 554.31ZM426.449 605.348L434.012 602.573C431.801 601.919 428.644 601.127 426.679 600.081C424.32 603.072 422.716 605.143 420.021 607.848C422.058 607.059 424.478 606.198 426.449 605.348ZM628.763 692.18C627.147 690.625 623.957 691.31 621.728 691.555C624.153 692.29 626.253 693.013 628.763 692.18ZM478.326 689.357C477.512 690.925 476.296 692.413 476.92 693.827C479.396 699.454 481.162 704.23 482.845 710.108L483.7 710.378C483.615 708.265 483.479 705.914 483.653 703.777C483.933 700.342 487.341 694.004 484.005 691.2C482.725 690.122 482.299 690.22 480.702 689.878L478.326 689.357ZM263.153 1026.71C278.815 987.023 295.069 947.578 311.91 908.385C327.572 871.365 342.905 835.073 354.715 796.486C356.717 789.94 356.571 783.719 358.015 777.18C358.854 773.384 363.889 764.554 364.15 760.893C364.676 753.508 362.657 739.505 360.848 732.243L360.183 731.508C349.827 744.918 336.156 765.111 329.777 780.578C322.591 798.011 317.785 819.747 312.194 838.19C303.962 864.684 294.849 890.903 284.871 916.792C274.865 942.845 264.291 968.672 253.158 994.266C251.571 997.946 235.006 1034.11 234.936 1034.83C236.51 1034.89 235.739 1034.99 237.212 1034.23C246.725 1029.91 252.716 1028.03 263.153 1026.71ZM828.068 598.39C830.42 599.855 838.845 603.321 841.313 602.473C840.015 599.059 831.424 597.591 828.068 598.39ZM611.831 644.555C599.763 668.869 583.136 678.538 556.841 682.591C563.263 683.412 570.098 684.171 576.469 685.114C593.679 685.114 612.148 685.396 629.259 684.74C626.926 678.819 624.502 672.464 621.869 666.702C618.379 659.048 614.686 652.509 611.831 644.555ZM607.543 842.06C604.225 897.559 593.742 989.38 550.627 1029.71C545.702 1034.31 541.527 1036.63 535.784 1039.92C543.352 1037.99 548.377 1036.66 555.467 1033.37C587.956 1015.39 605.338 973.767 615.201 939.355C620.485 920.741 624.44 901.772 627.037 882.594C628.335 873.263 629.155 861.88 630.686 852.934C623.02 848.777 615.562 845.47 607.543 842.06ZM420.574 540.745C417.465 543.365 413.023 548.664 414.837 552.917C417.479 555.149 422.309 553.582 426.759 555.46C441.535 561.698 459.456 565.89 472.872 574.642C479.519 578.978 483.782 597.984 486.293 605.937C501.231 535.94 590.339 529.945 615.005 597.854L615.746 601.497L616.689 602.104C620.503 600.519 624.159 596.671 628.322 597.871C636.38 600.193 639.95 615.225 643.985 622.248C643.361 606.136 644.524 589.627 643.085 573.417C642.454 566.355 645.155 557.216 643.079 549.69C642.283 544.971 640.066 541.582 634.831 541.197C628.353 540.72 621.612 540.964 615.078 541.015L582.679 541.156L480.26 541.184C462.396 541.194 437.976 541.854 420.574 540.745ZM542.889 558.509C510.917 563.332 488.863 593.099 493.561 625.09C498.259 657.076 527.939 679.248 559.948 674.674C592.133 670.076 614.454 640.195 609.728 608.03C605.004 575.862 575.037 553.66 542.889 558.509Z" fill="#4F4537"/>
<path d="M1065.74 770.99C1068.31 770.769 1068.92 770.592 1070.16 772.747C1069.6 773.965 1069 774.774 1067.57 775.123C1051.36 779.066 1037.21 785.017 1022.6 793.082C989.466 811.396 960.59 836.512 937.867 866.785C936.599 867.838 937.334 867.44 935.35 867.501L934.334 866.491C933.765 862.039 943.714 851.685 946.996 847.999C975.622 815.816 1023.19 780.009 1065.74 770.99Z" fill="#4F4537"/>
<path d="M817.672 680.724C819.521 681.018 818.725 680.626 820.09 682.009C819.753 686.406 808.23 692.504 804.421 694.862C776.561 712.478 744.305 721.883 711.351 721.999L709.453 721.515C708.075 720.009 708.43 720.86 708.234 718.925C710.23 716.752 721.785 717.144 725.269 716.954C733.192 716.501 741.048 715.282 748.738 713.323C775.22 706.82 795.371 695.664 817.672 680.724Z" fill="#4F4537"/>
<path d="M878.878 613.848L880.935 615.023L881.198 616.37C877.292 630.833 846.524 662.618 834.155 673.18C832.128 672.304 831.914 672.133 831.608 670.216C832.606 668.177 850.032 652.104 854.012 647.592C863.631 636.687 870.171 625.053 878.878 613.848Z" fill="#4F4537"/>
<path d="M545.973 570.509C571.467 567.432 594.616 585.64 597.631 611.142C600.646 636.644 582.38 659.746 556.871 662.697C531.45 665.643 508.445 647.451 505.441 622.04C502.436 596.627 520.567 573.576 545.973 570.509ZM556.901 654.78C577.982 651.798 592.677 632.327 589.758 611.237C586.839 590.148 567.407 575.397 546.31 578.256C525.126 581.126 510.302 600.655 513.234 621.832C516.164 643.006 535.735 657.774 556.901 654.78Z" fill="#4F4537"/>
<path d="M546.357 590.551C560.756 587.677 574.762 597.004 577.662 611.397C580.561 625.794 571.259 639.816 556.87 642.736C542.446 645.669 528.38 636.344 525.473 621.912C522.566 607.482 531.922 593.432 546.357 590.551Z" fill="#4F4537"/>
<path d="M539.378 520.485C547.673 520.34 556.276 520.04 564.571 520.318C568.01 520.433 570.638 521.077 571.634 524.555C571.188 527.079 571.099 526.964 569.398 528.995C560.996 528.845 552.548 529.448 544.16 529.159C540.712 529.04 538.361 528.507 537.178 525.218C537.467 522.943 538.09 522.361 539.378 520.485Z" fill="#4F4537"/>
<path d="M426.679 600.081C428.644 601.127 431.802 601.919 434.012 602.573L426.449 605.348C424.478 606.198 422.059 607.059 420.021 607.848C422.716 605.143 424.32 603.072 426.679 600.081Z" fill="#4F4537"/>
<path d="M621.728 691.555C623.957 691.31 627.147 690.625 628.763 692.18C626.253 693.012 624.153 692.29 621.728 691.555Z" fill="#4F4537"/>
<path d="M494.117 382.245C504.897 383.48 514.352 414.185 513.837 424.281C513.542 430.069 513.999 448.905 505.485 447.996C503.604 446.362 504.356 447.347 503.481 444.709C503.606 442.053 505.111 440.693 506.798 438.5C503.969 440.134 502.327 441.154 499.209 442.298C496.986 447.15 495.499 449.471 492.451 453.784C496.156 461.02 498.626 470.921 502.114 478.552C504.495 483.764 511.261 493.576 510.924 498.678C509.888 500.499 510.629 499.889 508.598 500.53C500.293 499.321 485.29 484.713 478.72 478.784C483.868 493.82 489.639 503.216 500.599 514.345C503.842 517.573 504.627 518.322 508.552 520.642C507.475 522.822 506.272 525.027 505.133 527.183C491.957 520.093 479.147 501.464 474.18 487.469C472.801 483.584 472.168 476.72 471.301 474.863C469.563 474.144 468.696 473.977 467.525 472.501C467.501 470.312 467.314 470.017 468.331 468.059C475.089 463.303 493.707 482.472 499.046 487.45C495.403 481.347 491.542 472.428 489.129 465.75C485.908 456.835 486.154 462.875 482.277 458.416C482.254 455.29 488.307 448.576 490.143 444.32C492.513 438.827 493.855 435.496 495.239 429.534C497.783 418.801 497.832 407.629 495.382 396.875C493.873 390.444 491.174 388.021 494.117 382.245ZM504.874 425.817C506.964 423.608 507.033 424.109 507.221 420.641C507.363 418.005 505.739 410.748 504.081 408.857C504.049 414.314 504.015 421.185 502.869 426.563L503.585 426.769L504.874 425.817Z" fill="#4F4537"/>
<path d="M521.904 294.631C529.322 293.912 535.04 294.501 541.819 298.063C545.425 299.958 552.241 304.719 548.97 309.421C544.471 310.606 543.129 307.136 539.419 305.05C523.747 296.237 514.72 304.165 509.134 318.144C514.737 312.727 521.239 307.914 529.349 307.26C532.623 306.995 537.271 307.859 538.972 310.925L538.519 312.119C530.572 318.693 521.487 307.84 507.097 330.629C506.523 355.83 517.334 372.852 524.439 396.16C525.459 399.506 527.05 412.769 527.805 413.679L529.373 413.21C538.424 410.581 559.398 403.728 563.511 416.548C564.43 419.316 562.852 421.801 560.012 422.398C548.649 424.786 538.169 426.012 526.897 429.387C525.831 433.537 525.433 437.991 521.168 439.792C516.46 438.919 517.66 434.534 517.56 431.024C517.518 429.569 518.811 428.591 519.77 427.38C522.797 406.774 514.087 387.13 506.581 368.582C497.499 346.142 493.122 305.07 521.904 294.631Z" fill="#4F4537"/>
<path d="M618.495 314.374C624.924 316.605 622.928 323.282 625.004 328.843C631.69 346.706 641.163 361.881 656.679 373.214C661.932 372.279 667.271 371.868 672.611 371.985C676.67 372.096 686.547 372.715 686.026 378.137C683.761 381.41 681.557 381.552 677.681 382.825C682.536 382.803 699.913 378.125 695.419 387.322C692.1 389.842 687.704 389.602 683.553 389.778C676.934 389.382 672.378 387.912 666.028 386.045C659.354 387.792 651.639 389.995 645.351 392.876C645.516 393.822 653.397 398.894 645.467 400.803C642.265 399.698 639.748 396.471 637.066 393.796C617.209 374.001 619.267 344.144 615.832 318.456C615.63 316.914 617.411 315.369 618.495 314.374ZM634.715 380.444C638.254 379.053 641.604 377.718 645.216 376.527L647.678 375.685L647.647 374.994C632.572 361.872 635.726 361.056 625.635 348.223C627.361 359.899 629.266 369.751 634.715 380.444Z" fill="#4F4537"/>
<path d="M629.921 164.373C657.738 164.965 679.909 173.104 703.581 187.201C712.135 192.296 722.819 197.901 732.151 201.482C736.823 202.962 741.648 203.728 746.436 204.304C749.865 204.717 758.958 203.921 761.107 205.857C761.646 208.353 761.737 207.167 760.85 209.545C751.083 218.8 720.18 204.693 710.279 199.483C683.601 183.568 657.731 170.547 625.738 172.02C611.922 172.657 602.024 174.437 590.195 181.516C587.279 183.262 581.007 187.406 578.723 183.738C579.311 177.778 583.14 177.075 587.645 174.329C600.708 166.366 614.986 164.98 629.921 164.373Z" fill="#4F4537"/>
<path d="M573.497 277.487C602.092 273.683 602.411 329.195 605.231 346.467C608.133 364.236 613.37 380.807 628.286 391.412C631.586 393.76 636.277 396.204 635.866 400.68C634.434 402.727 635.334 401.921 632.927 403.029C630.374 403.124 629.186 402.224 626.798 401.055C621.281 403.622 618.783 405.986 614.368 400.821C613.707 396.418 613.921 395.436 615.801 391.397C591.283 359.725 601.208 334.03 590.18 299.407C574.386 293.505 580.154 299.191 569.298 302.905C567.106 302.314 567.997 302.899 566.603 300.985C566.845 291.939 578.446 291.276 584.867 290.615L584.828 289.861C579.614 282.903 574.033 286.066 571.814 281.804C571.931 279.583 572.283 279.306 573.497 277.487Z" fill="#4F4537"/>
<path d="M515.705 183.954C523.144 183.39 541.995 185.784 546.477 192.247C546.888 194.804 547.027 193.578 545.891 196.036C541.657 198.968 536.748 193.878 532.244 192.865C495.89 184.686 464.285 210.033 444.256 236.559C440.195 242.069 434.456 253.587 431.364 257.071C429.4 257.752 429.474 257.889 427.475 257.518C424.252 254.182 428.803 246.913 430.748 243.528C448.339 212.922 479.187 186.264 515.705 183.954Z" fill="#4F4537"/>
<path d="M421.697 265.609C424.237 265.764 424.845 266.22 425.996 268.231C425.899 272.06 416.776 281.99 414.485 286.169C396.875 318.28 385.373 360.084 399.657 395.549C400.172 396.829 398.525 398.547 397.769 399.597C395.978 399.482 393.629 399.21 392.808 397.576C374.197 360.52 394.525 289.342 421.697 265.609Z" fill="#4F4537"/>
<path d="M510.852 266.46C520.119 265.714 528.377 266.871 536.447 271.935C538.634 273.308 541.078 275.129 541.589 277.717C540.987 279.82 541.553 278.938 539.646 280.325C536.158 279.537 532.18 275.625 528.967 274.107C519.113 269.564 506.321 271.57 497.958 278.432C476.928 295.687 477.694 327.094 484.444 350.882C487.228 359.35 491.018 365.048 493.527 372.315C493.192 374.719 493.614 373.625 492.044 375.649C485.99 376.95 482.733 364.364 480.914 359.94C468.073 328.701 470.321 276.02 510.852 266.46Z" fill="#4F4537"/>
<path d="M413.44 305.932C415.65 306.206 416.136 306.097 417.773 307.63C418.083 308.602 418.363 309.483 417.923 310.461C414.964 317.047 413.364 322.566 412.196 329.725C409.855 344.083 413.75 358.234 413.02 372.587C411.899 394.662 408.623 414.813 391.87 430.442C388.875 429.969 388.21 430.149 387.482 427.124C388.574 422.938 394.18 416.654 396.485 412.559C399.768 406.725 401.648 400.322 403.044 393.806C404.835 385.238 405.732 376.508 405.722 367.756C405.627 349.18 400.591 323.078 413.44 305.932Z" fill="#4F4537"/>
<path d="M654.529 418.966C673.805 416.077 683.877 443.244 665.086 452.367C645.89 455.199 635.744 427.678 654.529 418.966Z" fill="#4F4537"/>
<path d="M550.403 451.395C570.221 449.286 578.561 474.705 561.398 483.611C541.507 485.787 533.123 459.908 550.403 451.395Z" fill="#4F4537"/>
<path d="M732.825 212.952C753.71 217.959 772.514 259.99 792.335 269.737C796.59 271.83 804.25 272.61 804.066 277.641C803.044 279.549 802.829 279.457 800.937 280.436C775.012 275.755 761.481 245.677 744.073 229.013C740.264 225.368 730.039 221.064 729.457 216.837C730.424 214.601 730.927 214.411 732.825 212.952Z" fill="#4F4537"/>
<path d="M413.844 400.651C415.407 400.74 416.046 400.982 417.552 401.385C418.259 402.129 418.952 402.538 418.937 403.4C418.823 410.226 417.435 412.816 419.257 420.076C421.493 428.99 426.048 437.023 431.577 444.381C434.558 448.348 440.275 452.723 444.614 455.715C448.541 458.423 455.748 461.533 460.018 464.156C460.239 464.748 460.46 465.34 460.681 465.933C460.362 468.357 460.183 468.316 458.687 470.163C437.241 465.552 416.588 442.691 412.118 421.65C410.787 415.382 410.281 406.177 413.844 400.651Z" fill="#4F4537"/>
<path d="M470.894 366.984C475.808 368.405 475.253 374.538 476.726 378.756C484.658 401.485 488.194 445.097 467.966 463.136L465.684 462.671C464.878 461.831 463.847 460.947 464.488 459.68C469.452 449.889 473.22 444.943 475.173 433.773C477.652 419.597 477.061 406.578 473.824 392.501C472.387 386.256 470.618 380.198 469.389 373.928C468.766 370.556 468.928 369.629 470.894 366.984Z" fill="#4F4537"/>
<path d="M590.439 241.424C599.882 240.604 611.673 244.382 619.352 249.809C624.441 253.4 643.208 267.125 638.285 274.127C636.944 274.096 635.909 273.843 635.015 272.704C627.612 263.298 621.612 257.034 610.789 251.632C605.224 249.019 599.159 247.644 593.011 247.601C582.622 247.574 573.105 251.641 566.177 259.436C563.461 262.492 562.633 267.976 557.659 267.393L557.11 265.984C558.76 251.224 577.697 243.543 590.439 241.424Z" fill="#4F4537"/>
<path d="M579.605 165.543C583.384 165.459 587.051 165.524 588.929 169.316L588.551 170.407C584.445 174.447 581.397 171.892 576.692 173.097C558.766 177.69 552.403 198.096 555.337 214.241C554.576 215.342 554.246 215.528 553.266 216.464C551.069 216.989 552.078 217.135 550.132 216.049C548.562 213.88 547.776 211.455 547.55 208.797C545.74 187.517 557.934 168.296 579.605 165.543Z" fill="#4F4537"/>
<path d="M674.796 319.79C678.789 320.695 685.996 331.131 690.386 335.2C701.671 346.061 715.466 353.47 731.269 354.477C735.458 354.744 743.473 353.182 746.069 355.864C746.032 358.524 746.075 357.658 744.611 360.223C719.072 364.406 697.488 351.064 680.589 333.067C677.987 330.3 675.452 327.562 673.792 324.074C672.892 322.191 673.89 321.361 674.796 319.79Z" fill="#4F4537"/>
<path d="M777.774 373.979C786.744 374.481 793.18 389.076 789.242 394.75C786.022 393.829 785.073 385.451 779.776 379.396L779.207 378.755C773.537 386.557 772.398 393.114 770.904 402.411C778.411 406.907 782.06 411.641 781.35 420.527C778.864 425.091 777.364 425.539 774.51 429.421C772.98 431.498 774.553 433.638 771.731 436.324C769.343 436.478 770.457 436.713 768.296 435.448C762.289 425.076 789.457 422.008 765.663 404.995L765.712 404.095C766.422 393.13 769.171 381.39 777.774 373.979Z" fill="#4F4537"/>
<path d="M506.194 220.052C514.963 219.418 522.596 220.411 530.598 224.203C537.479 227.465 548.188 235.514 550.716 242.792C550.387 245.015 550.904 244.169 549.261 245.499C546.001 245.64 540.554 237.671 535.567 233.826C523.164 225.438 509.681 223.273 495.439 228.107C492.164 229.219 485.821 234.442 483.464 230.373C485.481 223.273 499.852 220.67 506.194 220.052Z" fill="#4F4537"/>
<path d="M563.389 282.668C566.289 283.999 567.12 284.869 569.563 286.903C560.668 293.588 561.586 296.851 558.535 306.528C556.043 306.313 556.081 306.431 553.999 305.17C549.283 298.749 558.166 286.579 563.389 282.668Z" fill="#4F4537"/>
<path d="M512.535 504.237L514.477 504.995C516.778 507.375 517.185 509.016 518.435 512.069C517.168 513.603 515.381 515.455 514.009 516.965C512.998 517.287 513.572 517.263 512.311 516.666C508.989 511.686 507.572 508.268 512.535 504.237Z" fill="#4F4537"/>
<path d="M612.629 501.836C615.973 502.556 618.997 503.108 621.306 505.609C622.071 507.877 621.875 507.089 621 509.835C617.699 509.342 614.57 508.796 612.329 506.367C611.53 503.857 611.706 504.777 612.629 501.836Z" fill="#4F4537"/>
</svg>
